# xmcd CD database file
#
# Track frame offsets:
#	150
#	12645
#	24052
#	33120
#	44117
#	51618
#	70091
#	82375
#	93821
#	105957
#
# Disc length: 1588 seconds
#
# Revision: 0
# Processed by: cddbd v1.5.2PL0 Copyright (c) Steve Scherf et al.
# Submitted via: CDex 1.70beta2
#
DISCID=7c06320a
DTITLE=Various Artist - Chug-A-Lug
DYEAR=2005
DGENRE=Country
TTITLE0=Merle Haggard  The Bottle Let Me Down
TTITLE1=George Jones  White Lightning
TTITLE2=Roger Miller  Chug-A-Lug
TTITLE3=Vern Gosdin  Set 'em Up, Joe
TTITLE4=Willie Nelson  I Gotta Get Drunk
TTITLE5=Ray Price and Willie Nelson  Night Life
TTITLE6=Freddy Fender  Wasted Days And Wasted Nights
TTITLE7=Mickey Gilley  Honky Tonk Wine
TTITLE8=Johnny Lee  Hey Bartender
TTITLE9=Merle Haggard  Swingin' Doors
EXTD=YEAR: 2005
EXTT0=
EXTT1=
EXTT2=
EXTT3=
EXTT4=
EXTT5=
EXTT6=
EXTT7=
EXTT8=
EXTT9=
PLAYORDER=
